<?xml version="1.0" encoding="utf-8"?>
<!-- Generator: Adobe Illustrator 24.1.3, SVG Export Plug-In . SVG Version: 6.00 Build 0)  -->
<svg version="1.1" id="Layer_1" xmlns="http://www.w3.org/2000/svg" xmlns:xlink="http://www.w3.org/1999/xlink" x="0px" y="0px"
	 viewBox="0 0 256 256" style="enable-background:new 0 0 256 256;" xml:space="preserve">
<style type="text/css">
	.st0{opacity:0.5;fill:#5540DB;}
	.st1{fill:#5540DB;}
	.st2{opacity:0.75;fill:#5540DB;}
	.st3{fill:#231B5C;}
</style>
<g>
	<g>
		<path class="st0" d="M154.3,177.4c-2.9,1.5-6,2.8-9.1,3.9c-0.2,0.1-0.3,0.1-0.5,0.1c-0.8,0.3-1.6,0.5-2.5,0.7
			c-0.2,0.1-0.5,0.1-0.7,0.2c-0.9,0.2-1.9,0.4-2.9,0.6c-0.2,0-0.4,0.1-0.6,0.1c-0.9,0.2-1.9,0.3-2.8,0.4c-0.1,0-0.2,0-0.3,0
			c-1.1,0.1-2.1,0.2-3.2,0.3c-0.1,0-0.3,0-0.4,0c-1.1,0.1-2.2,0.1-3.3,0.1c-0.4,0-0.7,0-1,0c-0.5,0-1,0-1.5,0
			c-0.7,0-1.4-0.1-2.1-0.1c-14.3-1.2-27-7.7-36.3-17.6l-2.9,22.6l-22.5-2.8C77.9,204.3,101.6,216,128,216c8.4,0,16.5-1.2,24.2-3.4
			l0,0c9.2-2.6,17.7-6.7,25.4-11.9L154.3,177.4z"/>
		<path class="st1" d="M80.8,184.3l2.8-22.3c-7.2-9.4-11.5-21.2-11.5-34c0-11.4,3.4-22.1,9.3-30.9l-22.9,2.7l-2.6-22.2
			C45.9,91.8,40,109.2,40,128c0,20.1,6.8,38.6,18.1,53.4L80.8,184.3z"/>
		<path class="st2" d="M150.8,43c-7.3-2-14.9-3-22.8-3c-27.7,0-52.5,12.9-68.6,32.9L62,95.3l22.6-2.6c10.3-12.6,25.8-20.6,43.3-20.6
			c4.7,0,9.2,0.6,13.6,1.7l-10.5-20.7L150.8,43z"/>
		<path class="st0" d="M156.3,44.7l-19.9,10.1l10.4,20.5c20.5,7.3,35.5,26.3,36.9,49l16.2-16.2l15.9,15.9
			C214.3,87.1,189.9,56.1,156.3,44.7z"/>
		<path class="st1" d="M216,129.8l-16-16l-16.1,16.1c-0.7,20.6-12.5,38.4-29.6,47.5l23.1,23.1c0,0,0,0,0,0l15.3,15.3
			c8.8-6.5,16.6-14.3,23.1-23.1l-15.2-15.2C210,164,215.6,147.5,216,129.8z"/>
	</g>
	<path class="st3" d="M128,128h32.3c0-17.8-14.4-32.3-32.3-32.3S95.8,110.2,95.8,128s14.4,32.3,32.3,32.3V128z"/>
</g>
</svg>
