<svg xmlns="http://www.w3.org/2000/svg" viewBox="0 0 1263.62 1262.52"><defs><style>.cls-1{fill:#fff;}.cls-2{fill:#e40728;}</style></defs><title>Asset 1</title><g id="Layer_2" data-name="Layer 2"><g id="Layer_1-2" data-name="Layer 1"><path class="cls-1" d="M797.78,435.52l-15.29-35.84-21.76-50.92-57-133.37a78.63,78.63,0,0,0-144.58.05l-6.1,14.26c7,10.37,13.95,20.82,20.77,31.23L588,227.77a47.27,47.27,0,0,1,86.9,0L732.24,362,754,412.91l22.29,52.18L972,482.85c14-9.37,27.59-18.7,40.64-27.81Zm305.46,75.55a6.3,6.3,0,0,0-.4-1,77,77,0,0,0-9.78-19.43c-8.26,6.06-16.78,12.16-25.48,18.35a46.23,46.23,0,0,1,5.78,11.85A47.26,47.26,0,0,1,1059.59,571L865.7,741l26.69,117.45c22.79,54.41,42.26,105.64,57.87,152.48,1.13,3.32,2.2,6.59,3.23,9.87a79.3,79.3,0,0,0,0-35l-53-233.5L1080.32,594.6A78.72,78.72,0,0,0,1103.24,511.07ZM883.51,1050a47,47,0,0,1-31-6.19L665.13,931.73l-33.69-20.14-32.39,19.33L410.28,1043.79a47.23,47.23,0,0,1-70.26-51l23.51-103.63q-18,7.2-35.35,13.82L321,934.6l-11.62,51.28a78.67,78.67,0,0,0,117.05,84.92L615.69,957.57l15.75-9.42,73.39,43.92,131.62,78.73a78.14,78.14,0,0,0,19.43,8.3,74.47,74.47,0,0,0,19.87,2.78,8.87,8.87,0,0,0,1,0,80.75,80.75,0,0,0,15.88-1.57C889.88,1070.53,886.83,1060.44,883.51,1050ZM348.37,814.06q17.49-7.06,35.57-14.71L397.18,741l-91-79.85-43.29-38L203.33,571a47.26,47.26,0,0,1,26.83-82.59l127.13-11.53,58.37-5.29,71-6.46,51.5-120.54c-6.91-10.81-13.77-21.45-20.59-31.81L506.23,339.3l-41.09,96.22-63.07,5.75-58.28,5.25L227.29,457.1a78.68,78.68,0,0,0-44.68,137.5l53.16,46.61L279,679.16l83.4,73.13Z"/><path class="cls-2" d="M544,522.64a4,4,0,0,0,0,5.67l40.47,40.47a4,4,0,1,0,5.67-5.67l-40.47-40.47A4,4,0,0,0,544,522.64Z"/><path class="cls-2" d="M688.93,570.48a4,4,0,0,0,1.76,6.73,4,4,0,0,0,3.27-.58c-1.3-2.42-2.56-4.85-3.9-7.27Z"/><path class="cls-2" d="M755.5,509.57a4,4,0,0,0-5.65,0L719,540.38c1.35,2.47,2.69,4.94,4,7.4l32.56-32.55A4,4,0,0,0,755.5,509.57Z"/><path class="cls-2" d="M562.73,659.8,508.92,689a4,4,0,0,0,3.9,7l53.81-29.2a4,4,0,0,0-3.9-7Z"/><path class="cls-2" d="M699.93,655.4a4,4,0,0,0,.13,7l3.72,2.07c2.7-1.44,5.48-3,8.35-4.53l-8.21-4.58A4,4,0,0,0,699.93,655.4Z"/><path class="cls-2" d="M749.45,684.25l-5.16,2.83L747.7,689a4,4,0,0,0,4-.14C751,687.35,750.22,685.78,749.45,684.25Z"/><path class="cls-2" d="M635.1,695.33a4,4,0,0,0-4,4v3.55c2.65-1.35,5.29-2.74,7.94-4.08A4,4,0,0,0,635.1,695.33Z"/><path class="cls-2" d="M631.11,746.92v17.54a4,4,0,0,0,8,0V742.84C636.45,744.23,633.76,745.57,631.11,746.92Z"/><circle class="cls-1" cx="1206.28" cy="343.37" r="57.34"/><circle class="cls-1" cx="166.79" cy="725.55" r="28.87"/><path class="cls-1" d="M304.47,255.53a50.05,50.05,0,0,1-10.68,3.32c17.28,50.29,38.9,105.51,64.11,163.87l11.17-1C343,361.26,321.25,305.19,304.47,255.53Zm953.38.45c-13-24.27-51.9-49.4-239.87,13.18-67.92,22.61-145.44,53.61-228,90.89l4.13,9.74c232.29-104.57,411-152.35,433.9-109.19a20.79,20.79,0,0,1,2.15,6.64,79.58,79.58,0,0,1,31.22,18.52,49.7,49.7,0,0,0,1.17-10.31A41.11,41.11,0,0,0,1257.85,256ZM948.72,1227.21a72.76,72.76,0,0,1-17.54-2.11c-2.61,6-6.24,10.32-10.91,12.79-35.75,19-125.29-73.57-231.25-229.15l-21.72-13c101.08,152.39,199.1,266.74,255.4,266.74a40.94,40.94,0,0,0,19.42-4.67c9.24-4.89,18.57-13.5,23.19-32.57A72.14,72.14,0,0,1,948.72,1227.21Zm190.43-840.82c-19.07,16.33-40.82,33.64-64.91,51.72q-17.77,13.39-37.24,27.23c-1,.72-2,1.44-3,2.15C959.39,520.39,867.29,578.3,764.2,636.31q-17.3-34.12-35.66-68.64c-23.28-43.79-47.91-88.15-73.21-131.71q35.25-17.7,69.58-34.1l-4.13-9.64c-23.28,11.17-46.93,22.74-70.7,34.72C518.68,202.1,370.15,0,295.27,0A41.17,41.17,0,0,0,275.8,4.67c-20.18,10.76-41,39.56-11.35,157.23a48.6,48.6,0,0,1,11.67-3.32c-16.15-68.5-15.88-113.32,4.31-124C316.36,15.39,406.62,109,513.25,265.89c5.7,8.43,11.44,17,17.23,25.71,2,2.91,3.9,5.87,5.83,8.83.72,1.12,1.44,2.25,2.2,3.37,1.52,2.33,3,4.66,4.62,7q10,15.54,20.28,31.72,29.48,46.56,59.66,98.11-27.59,14.13-55.4,28.89C520.79,494.5,473.28,521,426.76,548.15q-12.86-26.77-24.85-52.84l-11.13,1q13,28.26,27,57.15c-40.42,23.82-80,48.09-117.8,72.4l8.25,7.27c35.62-23,73.8-46.56,114.08-70.3,21,43.34,43.48,87.53,67.12,132q17.36,32.7,35.66,65.63c-42.12,20-82.9,38.49-121.8,55-.8.36-1.61.72-2.37,1-15,6.37-29.7,12.51-44.1,18.3-3.95,1.61-7.9,3.23-11.85,4.8-.71.27-1.48.58-2.24.9-8.66,3.45-17.22,6.77-25.61,10C156.56,912.2,42.62,934.32,24.63,900.49,11.44,875.68,51.9,825,129.78,761a48.47,48.47,0,0,1-7-9.2C47.82,812.65,0,866.49,0,902.87a40.94,40.94,0,0,0,4.67,19.42c12.92,24.36,51.86,49.44,239.87-13.14,20.63-6.86,42.17-14.49,64.42-22.88,6.5-2.42,13.05-4.89,19.65-7.49l8.61-3.37c6-2.28,11.93-4.66,18-7.13l14.58-5.83c53.83-21.89,111-47.33,170.11-75.5,21.71,38.35,44.1,76.44,66.71,113.36l9-5.38c-21.89-35.62-44.1-73.26-66.3-112.51,47.64-22.88,96.4-47.55,145.57-73.71,18.75-10,37.64-20.19,56.52-30.64,65,130.59,115.88,251.22,147.64,347,1,3.1,2,6.15,3,9.15s1.93,6,2.87,9c.85,2.74,1.7,5.48,2.55,8.17s1.62,5.25,2.38,7.85c2.07,6.82,4,13.46,5.83,20,.68,2.42,1.35,4.8,2,7.13h0a72.48,72.48,0,0,1,30.19-6.9q-3.55-12.72-7.85-26.74c-.22-.81-.45-1.62-.71-2.42-2.11-7-4.4-14.09-6.82-21.49-1.12-3.55-2.29-7.13-3.5-10.77Q918.89,987.7,906.64,955c-1.17-3.14-2.34-6.28-3.55-9.42-2.24-6-4.62-12.11-7-18.26q-11.43-29.4-24.4-60.25c-27-64.42-58.63-133.14-93.85-203.75,105.6-59.35,209.59-124.09,294-185,2.7-1.93,5.34-3.86,8-5.79,1-.72,1.93-1.44,2.92-2.15,28.75-21.09,55.09-41.72,78.14-61.42A80.72,80.72,0,0,1,1139.15,386.39ZM680.36,682.15c-49.75,26.47-98.65,51.14-145.89,73.84q-17.9-32.22-35.75-65.72c-24-45.17-46.52-89.58-67.43-132.74,44.68-26.15,91.88-52.53,141-78.64q28.28-15,56.08-29.25c24.54,42.17,49.21,86.49,73.66,132.52q18.51,34.79,35.8,68.9Q709.52,666.62,680.36,682.15ZM242.47,677l-8.39-7.4q-15.33,10.5-30,20.9a47.69,47.69,0,0,1,6.64,8.75C221,691.89,231.57,684.44,242.47,677Z"/><path class="cls-2" d="M669.72,645.09l3.46,15.25c-1.12.63-2.25,1.21-3.37,1.8q-15.07,8-30.14,15.88l-8.35-5-36.2,21.66a7.78,7.78,0,0,1-8.52-.4,7.71,7.71,0,0,1-3-8L593,645.09,561.2,617.27A7.82,7.82,0,0,1,559,609a7.73,7.73,0,0,1,6.64-5.29l42-3.82L624.23,561a7.76,7.76,0,0,1,14.23,0l16.59,38.89,32.53,3L697.13,621Z"/><circle class="cls-1" cx="284.11" cy="208.87" r="28.48"/><circle class="cls-1" cx="948.73" cy="1153.29" r="51.49"/></g></g></svg>