<?xml version="1.0" encoding="utf-8"?>
<!-- Generator: Adobe Illustrator 24.1.3, SVG Export Plug-In . SVG Version: 6.00 Build 0)  -->
<svg version="1.1" id="Layer_1" xmlns="http://www.w3.org/2000/svg" xmlns:xlink="http://www.w3.org/1999/xlink" x="0px" y="0px"
	 viewBox="0 0 2000 1000" style="enable-background:new 0 0 2000 1000;" xml:space="preserve">
<style type="text/css">
	.st0{fill:#231B5C;}
	.st1{fill:#5540DB;}
	.st2{fill:none;stroke:#5540DB;stroke-width:4;stroke-linecap:round;stroke-miterlimit:10;}
	.st3{opacity:0.5;fill:#5540DB;}
	.st4{opacity:0.75;fill:#5540DB;}
</style>
<g>
	<g>
		<path class="st0" d="M802.7,499.7c0,38.5-31.4,69.9-69.9,69.9s-69.9-31.4-69.9-69.9V375.6h-54.2v124.1
			c0,68.4,55.7,124.1,124.1,124.1c68.4,0,124.1-55.7,124.1-124.1V375.6h-54.2V499.7z"/>
		<rect x="898.6" y="375.6" class="st0" width="54.2" height="248.1"/>
		<polygon class="st0" points="1163.7,421.1 1117.4,511.8 1071.1,421 1047.9,375.6 987.2,375.6 1013.2,426.5 1117.4,631 
			1221.6,426.5 1247.6,375.6 1186.9,375.6 		"/>
		<path class="st0" d="M1263.9,445.4V554c0,38.5,31.1,69.8,69.4,69.8h178.4v-54.2h-178.4c-8.5,0-15.6-7.1-15.6-15.6v-38.5h151.8
			v-54.2h-151.8v-15.9c0-8.5,7.1-15.6,15.6-15.6h178.4v-54.2h-178.4C1295.1,375.6,1263.9,406.9,1263.9,445.4z"/>
		<path class="st0" d="M1755.4,573.2l-30.1-59.9c4.1-1,8-2.4,11.7-4.1c24.7-11.4,40.6-36.3,40.6-63.5c0-18.4-7.2-35.9-20.3-49.4
			c-13.1-13.1-30.5-20.3-49.1-20.3h-155.1v248.1h54.2V515.5h36.2c12.5,0,23.8,6.4,30.5,17.2l46.8,91.5h60.7L1755.4,573.2z
			 M1714.6,459.8l-0.3,0.1c-1.8,0.9-3.9,1.4-6.1,1.4l-100.9,0.3v-31.5h100.9c5.8,0,9.3,2.7,10.9,4.3c1.1,1.1,4.7,5.1,4.7,11.3
			C1723.8,451.7,1720.1,457.4,1714.6,459.8z"/>
	</g>
	<g>
		<path class="st1" d="M1515.7,660.5c0,4.2,3.4,7.6,7.6,7.6h11.8v4.2h-11.8c-6.5,0-11.8-5.3-11.8-11.8c0-6.5,5.3-11.8,11.8-11.8
			h11.8v4.2h-11.8C1519.1,652.9,1515.7,656.3,1515.7,660.5z"/>
		<path class="st1" d="M1566.6,660.5c0,6.5-5.3,11.8-11.8,11.8c-6.5,0-11.8-5.3-11.8-11.8c0-6.5,5.3-11.8,11.8-11.8
			C1561.2,648.7,1566.6,654,1566.6,660.5z M1562.3,660.5c0-4.2-3.4-7.6-7.6-7.6c-4.2,0-7.6,3.4-7.6,7.6c0,4.2,3.4,7.6,7.6,7.6
			C1558.9,668.1,1562.3,664.7,1562.3,660.5z"/>
		<path class="st1" d="M1599.5,648.7v23.7h-4.2v-15.1l-4.2,3.2l-3.4,2.7l-3.4-2.7l-4.2-3.2v15.1h-4.2v-23.7l4.2,3.2l7.6,5.8l7.6-5.8
			L1599.5,648.7z"/>
		<path class="st1" d="M1633.3,648.7v23.7h-4.2v-15.1l-4.2,3.2l-3.4,2.7l-3.4-2.7l-4.2-3.2v15.1h-4.2v-23.7l4.2,3.2l7.6,5.8l7.6-5.8
			L1633.3,648.7z"/>
		<path class="st1" d="M1667.1,648.7v11.8c0,6.5-5.3,11.8-11.8,11.8c-6.5,0-11.8-5.3-11.8-11.8v-11.8h4.2v11.8
			c0,4.2,3.4,7.6,7.6,7.6c4.2,0,7.6-3.4,7.6-7.6v-11.8H1667.1z"/>
		<path class="st1" d="M1700.9,648.7v23.7l-4.2-3.2l-15.2-11.7v15h-4.2v-23.6l4.2,3.2l15.2,11.7v-15.1L1700.9,648.7z"/>
		<path class="st1" d="M1711,672.3v-23.7h4.2v23.7H1711z"/>
		<path class="st1" d="M1749,648.7v4.2h-9.7v19.4h-4.2v-19.4h-9.7v-4.2H1749z"/>
		<path class="st1" d="M1757.8,672.3L1757.8,672.3L1757.8,672.3L1757.8,672.3z M1781.4,648.6l-9.2,11.9l-0.5,0.6v11.2h-4.2v-11.1
			l-0.6-0.7l-9.2-11.9h5.3l6.5,8.4l6.5-8.4H1781.4z M1781.4,672.3L1781.4,672.3L1781.4,672.3L1781.4,672.3z"/>
	</g>
	<line class="st2" x1="1497.8" y1="660.5" x2="1317.7" y2="660.5"/>
	<g>
		<g>
			<g>
				<path class="st3" d="M442.1,596.4c-5.7,3-11.6,5.6-17.8,7.6c-0.3,0.1-0.6,0.2-1,0.3c-1.6,0.5-3.2,0.9-4.8,1.4
					c-0.5,0.1-0.9,0.2-1.4,0.4c-1.8,0.5-3.7,0.9-5.6,1.2c-0.4,0.1-0.8,0.1-1.1,0.2c-1.8,0.3-3.7,0.6-5.6,0.9c-0.2,0-0.3,0.1-0.5,0.1
					c-2.1,0.3-4.2,0.5-6.3,0.6c-0.3,0-0.5,0-0.8,0c-2.1,0.1-4.3,0.2-6.5,0.2c-0.7,0-1.4,0-2,0c-1,0-2,0-3-0.1
					c-1.4-0.1-2.7-0.2-4-0.3c-27.9-2.3-52.8-15.1-70.9-34.4l-5.6,44.2l-43.9-5.5c31.5,36,77.8,58.8,129.4,58.8
					c16.4,0,32.2-2.3,47.2-6.6l0,0c17.9-5.1,34.6-13.1,49.7-23.3L442.1,596.4z"/>
				<path class="st1" d="M298.5,609.9l5.5-43.6c-14.1-18.4-22.5-41.4-22.5-66.4c0-22.3,6.7-43.1,18.2-60.4l-44.7,5.2l-5.1-43.4
					c-19.6,27.9-31.1,61.9-31.1,98.6c0,39.3,13.2,75.4,35.4,104.4L298.5,609.9z"/>
				<path class="st4" d="M435.3,333.8c-14.2-3.8-29.1-5.9-44.6-5.9c-54.2,0-102.5,25.1-134,64.3l5.1,43.8l44.2-5.2
					c20-24.6,50.5-40.3,84.7-40.3c9.1,0,18,1.1,26.5,3.3l-20.6-40.4L435.3,333.8z"/>
				<path class="st3" d="M446.1,337.1l-38.9,19.8l20.4,40.1c40.1,14.4,69.3,51.4,72.2,95.7l31.6-31.6l31.2,31.2
					C559.4,420,511.6,359.4,446.1,337.1z"/>
				<path class="st1" d="M562.7,503.5l-31.3-31.3L500,503.6c-1.3,40.2-24.4,75-57.8,92.8l45.2,45.2c0,0,0,0,0,0l30,30
					c17.2-12.7,32.4-27.9,45.1-45l-29.6-29.6C551,570.2,562,538.1,562.7,503.5z"/>
			</g>
			<path class="st0" d="M390.7,499.9h63c0-34.8-28.2-63-63-63s-63,28.2-63,63s28.2,63,63,63V499.9z"/>
		</g>
	</g>
</g>
</svg>
