<?xml version="1.0" encoding="utf-8"?>
<!-- Generator: Adobe Illustrator 24.1.3, SVG Export Plug-In . SVG Version: 6.00 Build 0)  -->
<svg version="1.1" id="Layer_1" xmlns="http://www.w3.org/2000/svg" xmlns:xlink="http://www.w3.org/1999/xlink" x="0px" y="0px"
	 viewBox="0 0 2000 1000" style="enable-background:new 0 0 2000 1000;" xml:space="preserve">
<style type="text/css">
	.st0{fill:#231B5C;}
	.st1{fill:#5540DB;}
	.st2{fill:none;stroke:#5540DB;stroke-width:4;stroke-linecap:round;stroke-miterlimit:10;}
	.st3{opacity:0.5;fill:#5540DB;}
	.st4{opacity:0.75;fill:#5540DB;}
</style>
<g>
	<g>
		<path class="st0" d="M802.7,499.7c0,38.5-31.4,69.9-69.9,69.9s-69.9-31.4-69.9-69.9V375.6h-54.2v124.1
			c0,68.4,55.7,124.1,124.1,124.1c68.4,0,124.1-55.7,124.1-124.1V375.6h-54.2V499.7z"/>
		<rect x="898.6" y="375.6" class="st0" width="54.2" height="248.1"/>
		<polygon class="st0" points="1163.7,421.1 1117.4,511.8 1071.1,421 1047.9,375.6 987.2,375.6 1013.2,426.5 1117.4,631 
			1221.6,426.5 1247.6,375.6 1186.9,375.6 		"/>
		<path class="st0" d="M1263.9,445.4V554c0,38.5,31.1,69.8,69.4,69.8h178.4v-54.2h-178.4c-8.5,0-15.6-7.1-15.6-15.6v-38.5h151.8
			v-54.2h-151.8v-15.9c0-8.5,7.1-15.6,15.6-15.6h178.4v-54.2h-178.4C1295.1,375.6,1263.9,406.9,1263.9,445.4z"/>
		<path class="st0" d="M1755.4,573.2l-30.1-59.9c4.1-1,8-2.4,11.7-4.1c24.7-11.4,40.6-36.3,40.6-63.5c0-18.4-7.2-35.9-20.3-49.4
			c-13.1-13.1-30.5-20.3-49.1-20.3h-155.1v248.1h54.2V515.5h36.2c12.5,0,23.8,6.4,30.5,17.2l46.8,91.5h60.7L1755.4,573.2z
			 M1714.6,459.8l-0.3,0.1c-1.8,0.9-3.9,1.4-6.1,1.4l-100.9,0.3v-31.5h100.9c5.8,0,9.3,2.7,10.9,4.3c1.1,1.1,4.7,5.1,4.7,11.3
			C1723.8,451.7,1720.1,457.4,1714.6,459.8z"/>
	</g>
	<g>
		<path class="st1" d="M1515.7,660.5c0,4.2,3.4,7.6,7.6,7.6h11.8v4.2h-11.8c-6.5,0-11.8-5.3-11.8-11.8c0-6.5,5.3-11.8,11.8-11.8
			h11.8v4.2h-11.8C1519.1,652.9,1515.7,656.3,1515.7,660.5z"/>
		<path class="st1" d="M1566.6,660.5c0,6.5-5.3,11.8-11.8,11.8c-6.5,0-11.8-5.3-11.8-11.8c0-6.5,5.3-11.8,11.8-11.8
			C1561.2,648.7,1566.6,654,1566.6,660.5z M1562.3,660.5c0-4.2-3.4-7.6-7.6-7.6c-4.2,0-7.6,3.4-7.6,7.6c0,4.2,3.4,7.6,7.6,7.6
			C1558.9,668.1,1562.3,664.7,1562.3,660.5z"/>
		<path class="st1" d="M1599.5,648.7v23.7h-4.2v-15.1l-4.2,3.2l-3.4,2.7l-3.4-2.7l-4.2-3.2v15.1h-4.2v-23.7l4.2,3.2l7.6,5.8l7.6-5.8
			L1599.5,648.7z"/>
		<path class="st1" d="M1633.3,648.7v23.7h-4.2v-15.1l-4.2,3.2l-3.4,2.7l-3.4-2.7l-4.2-3.2v15.1h-4.2v-23.7l4.2,3.2l7.6,5.8l7.6-5.8
			L1633.3,648.7z"/>
		<path class="st1" d="M1667.1,648.7v11.8c0,6.5-5.3,11.8-11.8,11.8c-6.5,0-11.8-5.3-11.8-11.8v-11.8h4.2v11.8
			c0,4.2,3.4,7.6,7.6,7.6c4.2,0,7.6-3.4,7.6-7.6v-11.8H1667.1z"/>
		<path class="st1" d="M1700.9,648.7v23.7l-4.2-3.2l-15.2-11.7v15h-4.2v-23.6l4.2,3.2l15.2,11.7v-15.1L1700.9,648.7z"/>
		<path class="st1" d="M1711,672.3v-23.7h4.2v23.7H1711z"/>
		<path class="st1" d="M1749,648.7v4.2h-9.7v19.4h-4.2v-19.4h-9.7v-4.2H1749z"/>
		<path class="st1" d="M1757.8,672.3L1757.8,672.3L1757.8,672.3L1757.8,672.3z M1781.4,648.6l-9.2,11.9l-0.5,0.6v11.2h-4.2v-11.1
			l-0.6-0.7l-9.2-11.9h5.3l6.5,8.4l6.5-8.4H1781.4z M1781.4,672.3L1781.4,672.3L1781.4,672.3L1781.4,672.3z"/>
	</g>
	<line class="st2" x1="1497.8" y1="660.5" x2="1317.7" y2="660.5"/>
	<g>
		<g>
			<g>
				<path class="st3" d="M442.1,596.3c-5.7,3-11.6,5.6-17.9,7.6c-0.3,0.1-0.6,0.2-1,0.3c-1.6,0.5-3.2,1-4.8,1.4
					c-0.5,0.1-0.9,0.2-1.4,0.4c-1.8,0.5-3.7,0.9-5.6,1.2c-0.4,0.1-0.8,0.1-1.1,0.2c-1.8,0.3-3.7,0.6-5.6,0.9c-0.2,0-0.3,0.1-0.5,0.1
					c-2.1,0.3-4.2,0.5-6.3,0.6c-0.3,0-0.5,0-0.8,0c-2.1,0.1-4.3,0.2-6.5,0.2c-0.7,0-1.4,0-2,0c-1,0-2,0-3-0.1
					c-1.4-0.1-2.7-0.2-4-0.3c-26.7-2.2-50.6-13.9-68.4-31.8l-5.6,44.7l-43.6-5.5c31.5,34.3,76.6,55.8,126.8,55.8
					c16.4,0,32.3-2.3,47.3-6.6l0,0c17.9-5.1,34.7-13.1,49.7-23.4L442.1,596.3z"/>
				<path class="st1" d="M297.4,608.5l5.5-43.5c-13.6-18.2-21.6-40.8-21.6-65.2c0-21.1,6-40.8,16.4-57.5l-45.3,5.3l-5-42.9
					c-18.1,27.3-28.7,59.9-28.7,95.1c0,38.7,12.9,74.4,34.4,103.2L297.4,608.5z"/>
				<path class="st4" d="M431.2,332.4c-13-3.1-26.5-4.8-40.5-4.8c-53.7,0-101.6,24.6-133.2,63.2l5.1,43.7l44.4-5.2
					c20.1-23.8,50.1-39,83.7-39c8,0,15.7,0.9,23.2,2.5l-20.9-41L431.2,332.4z"/>
				<path class="st3" d="M447.5,337.3L408.8,357l20.6,40.4c38.3,14.5,66.3,49.8,70.2,92.1l31.8-31.8l31,31
					C558,418.4,511.3,359.6,447.5,337.3z"/>
				<path class="st1" d="M562.7,505.5l-31.3-31.3l-31.5,31.5c-2.1,39.3-25,73-57.8,90.5l45.2,45.3c0,0,0,0,0,0l30,30
					c17.2-12.7,32.4-27.9,45.1-45.1l-29.7-29.7C550.7,570.7,561.6,539.4,562.7,505.5z"/>
			</g>
			<path class="st0" d="M390.7,499.7h63.1c0-34.8-28.2-63.1-63.1-63.1s-63.1,28.2-63.1,63.1s28.2,63.1,63.1,63.1V499.7z"/>
		</g>
	</g>
</g>
</svg>
